<svg width="480" height="360" viewBox="0 0 480 360" fill="none" xmlns="http://www.w3.org/2000/svg">
  <rect width="480" height="360" fill="#F7F4EC"/>
  <path d="M0 0H480V360H0V0Z" fill="url(#paper)"/>
  <circle cx="240" cy="178" r="92" fill="#FBFAF4" stroke="#111111" stroke-width="8"/>
  <circle cx="240" cy="178" r="58" fill="#F2EFE6" stroke="#111111" stroke-width="4"/>
  <path d="M187 180C205 153 232 141 271 151C289 156 302 166 313 181" stroke="#B31921" stroke-width="18" stroke-linecap="round"/>
  <path d="M192 207C224 226 264 226 300 205" stroke="#111111" stroke-width="8" stroke-linecap="round"/>
  <path d="M123 250H357" stroke="#111111" stroke-width="6" stroke-linecap="round"/>
  <path d="M145 274H335" stroke="#B31921" stroke-width="5" stroke-linecap="round"/>
  <path d="M346 102L384 246" stroke="#111111" stroke-width="7" stroke-linecap="round"/>
  <path d="M363 97L402 239" stroke="#111111" stroke-width="7" stroke-linecap="round"/>
  <path d="M95 112C110 141 113 172 106 205" stroke="#111111" stroke-width="7" stroke-linecap="round"/>
  <path d="M124 111C112 142 111 174 121 205" stroke="#111111" stroke-width="7" stroke-linecap="round"/>
  <defs>
    <pattern id="paper" width="18" height="18" patternUnits="userSpaceOnUse">
      <rect width="18" height="18" fill="#F7F4EC"/>
      <circle cx="3" cy="4" r="1" fill="#111111" fill-opacity="0.08"/>
      <circle cx="13" cy="12" r="1" fill="#111111" fill-opacity="0.06"/>
      <path d="M0 17H18" stroke="#111111" stroke-opacity="0.05"/>
    </pattern>
  </defs>
</svg>
